<svg xmlns="http://www.w3.org/2000/svg" version="1.1" xmlns:xlink="http://www.w3.org/1999/xlink" xmlns:svgjs="http://svgjs.dev/svgjs" width="200" height="200"><rect width="200" height="200" x="0" y="0" fill="none" stroke="none"></rect><defs><clipPath id="SvgjsClipPath1000"><rect width="130" height="140" x="35" y="30" rx="5" ry="5"></rect></clipPath></defs><g><line x1="10" y1="70" x2="43" y2="70" stroke-linecap="round" stroke-width="8" stroke="#dc2626"></line><line x1="18" y1="86" x2="38" y2="86" stroke-linecap="round" stroke-width="8" stroke="#dc2626"></line></g><g transform="matrix(1 0 -0.2679491924311227 1 26.79491924311227 0)" clip-path="url(#SvgjsClipPath1000)"><rect width="130" height="140" x="35" y="30" rx="5" ry="5" fill="none" stroke="none"></rect><g><rect width="7" height="7" x="38" y="33.5" fill-opacity="0" fill="#fb7185" stroke="none"></rect><rect width="7" height="7" x="47" y="33.5" fill-opacity="0" fill="#fb7185" stroke="none"></rect><rect width="7" height="7" x="56" y="33.5" fill-opacity="0" fill="#fb7185" stroke="none"></rect><rect width="7" height="7" x="65" y="33.5" fill-opacity="0" fill="#fb7185" stroke="none"></rect><rect width="7" height="7" x="74" y="33.5" fill-opacity="0" fill="#fb7185" stroke="none"></rect><rect width="7" height="7" x="83" y="33.5" fill-opacity="0" fill="#fb7185" stroke="none"></rect><rect width="7" height="7" x="92" y="33.5" fill-opacity="0" fill="#fb7185" stroke="none"></rect><rect width="7" height="7" x="101" y="33.5" fill-opacity="0" fill="#fb7185" stroke="none"></rect><rect width="7" height="7" x="110" y="33.5" fill-opacity="0" fill="#fb7185" stroke="none"></rect><rect width="7" height="7" x="119" y="33.5" fill-opacity="0" fill="#fb7185" stroke="none"></rect><rect width="7" height="7" x="128" y="33.5" fill-opacity="0" fill="#fb7185" stroke="none"></rect><rect width="7" height="7" x="137" y="33.5" fill-opacity="0" fill="#fb7185" stroke="none"></rect><rect width="7" height="7" x="146" y="33.5" fill-opacity="0" fill="#fb7185" stroke="none"></rect><rect width="7" height="7" x="155" y="33.5" fill-opacity="0" fill="#fb7185" stroke="none"></rect><rect width="7" height="7" x="38" y="42.5" fill-opacity="0.0017997213218890703" fill="#fb7185" stroke="none"></rect><rect width="7" height="7" x="47" y="42.5" fill-opacity="0.0022897764413970408" fill="#fb7185" stroke="none"></rect><rect width="7" height="7" x="56" y="42.5" fill-opacity="0.0015835508371032374" fill="#fb7185" stroke="none"></rect><rect width="7" height="7" x="65" y="42.5" fill-opacity="0.0010543697066335948" fill="#fb7185" stroke="none"></rect><rect width="7" height="7" x="74" y="42.5" fill-opacity="0.0012170664307885463" fill="#fb7185" stroke="none"></rect><rect width="7" height="7" x="83" y="42.5" fill-opacity="0.0027243567266264424" fill="#fb7185" stroke="none"></rect><rect width="7" height="7" x="92" y="42.5" fill-opacity="0.001525836103693687" fill="#fb7185" stroke="none"></rect><rect width="7" height="7" x="101" y="42.5" fill-opacity="0.0014726019897812767" fill="#fb7185" stroke="none"></rect><rect width="7" height="7" x="110" y="42.5" fill-opacity="0.0027810893807346487" fill="#fb7185" stroke="none"></rect><rect width="7" height="7" x="119" y="42.5" fill-opacity="0.0026144800334837195" fill="#fb7185" stroke="none"></rect><rect width="7" height="7" x="128" y="42.5" fill-opacity="0.0009657204265071562" fill="#fb7185" stroke="none"></rect><rect width="7" height="7" x="137" y="42.5" fill-opacity="0.0010792127452988395" fill="#fb7185" stroke="none"></rect><rect width="7" height="7" x="146" y="42.5" fill-opacity="0.0015714524897545421" fill="#fb7185" stroke="none"></rect><rect width="7" height="7" x="155" y="42.5" fill-opacity="0.002519388218053907" fill="#fb7185" stroke="none"></rect><rect width="7" height="7" x="38" y="51.5" fill-opacity="0.008397435807330733" fill="#fb7185" stroke="none"></rect><rect width="7" height="7" x="47" y="51.5" fill-opacity="0.010916026207251052" fill="#fb7185" stroke="none"></rect><rect width="7" height="7" x="56" y="51.5" fill-opacity="0.009621459475733242" fill="#fb7185" stroke="none"></rect><rect width="7" height="7" x="65" y="51.5" fill-opacity="0.010265862445622794" fill="#fb7185" stroke="none"></rect><rect width="7" height="7" x="74" y="51.5" fill-opacity="0.011081393393163363" fill="#fb7185" stroke="none"></rect><rect width="7" height="7" x="83" y="51.5" fill-opacity="0.009490984085514763" fill="#fb7185" stroke="none"></rect><rect width="7" height="7" x="92" y="51.5" fill-opacity="0.004987428161792734" fill="#fb7185" stroke="none"></rect><rect width="7" height="7" x="101" y="51.5" fill-opacity="0.010457803235220471" fill="#fb7185" stroke="none"></rect><rect width="7" height="7" x="110" y="51.5" fill-opacity="0.0044994083041749525" fill="#fb7185" stroke="none"></rect><rect width="7" height="7" x="119" y="51.5" fill-opacity="0.008864726956214812" fill="#fb7185" stroke="none"></rect><rect width="7" height="7" x="128" y="51.5" fill-opacity="0.00975993487381947" fill="#fb7185" stroke="none"></rect><rect width="7" height="7" x="137" y="51.5" fill-opacity="0.012458881614874464" fill="#fb7185" stroke="none"></rect><rect width="7" height="7" x="146" y="51.5" fill-opacity="0.004630791128422685" fill="#fb7185" stroke="none"></rect><rect width="7" height="7" x="155" y="51.5" fill-opacity="0.00558988734039104" fill="#fb7185" stroke="none"></rect><rect width="7" height="7" x="38" y="60.5" fill-opacity="0.017050407364143864" fill="#fb7185" stroke="none"></rect><rect width="7" height="7" x="47" y="60.5" fill-opacity="0.010810328029783595" fill="#fb7185" stroke="none"></rect><rect width="7" height="7" x="56" y="60.5" fill-opacity="0.019198930973839113" fill="#fb7185" stroke="none"></rect><rect width="7" height="7" x="65" y="60.5" fill-opacity="0.01555208183913654" fill="#fb7185" stroke="none"></rect><rect width="7" height="7" x="74" y="60.5" fill-opacity="0.028665837273782396" fill="#fb7185" stroke="none"></rect><rect width="7" height="7" x="83" y="60.5" fill-opacity="0.026886233774383837" fill="#fb7185" stroke="none"></rect><rect width="7" height="7" x="92" y="60.5" fill-opacity="0.028760974748311133" fill="#fb7185" stroke="none"></rect><rect width="7" height="7" x="101" y="60.5" fill-opacity="0.027676559953652535" fill="#fb7185" stroke="none"></rect><rect width="7" height="7" x="110" y="60.5" fill-opacity="0.020450931185198796" fill="#fb7185" stroke="none"></rect><rect width="7" height="7" x="119" y="60.5" fill-opacity="0.01907514038697298" fill="#fb7185" stroke="none"></rect><rect width="7" height="7" x="128" y="60.5" fill-opacity="0.01673883179393607" fill="#fb7185" stroke="none"></rect><rect width="7" height="7" x="137" y="60.5" fill-opacity="0.026161802723125873" fill="#fb7185" stroke="none"></rect><rect width="7" height="7" x="146" y="60.5" fill-opacity="0.028541972594107613" fill="#fb7185" stroke="none"></rect><rect width="7" height="7" x="155" y="60.5" fill-opacity="0.01641241029530391" fill="#fb7185" stroke="none"></rect><rect width="7" height="7" x="38" y="69.5" fill-opacity="0.023783078176998484" fill="#fb7185" stroke="none"></rect><rect width="7" height="7" x="47" y="69.5" fill-opacity="0.019735093216065164" fill="#fb7185" stroke="none"></rect><rect width="7" height="7" x="56" y="69.5" fill-opacity="0.023568404436118552" fill="#fb7185" stroke="none"></rect><rect width="7" height="7" x="65" y="69.5" fill-opacity="0.034459749884204506" fill="#fb7185" stroke="none"></rect><rect width="7" height="7" x="74" y="69.5" fill-opacity="0.01914347224328262" fill="#fb7185" stroke="none"></rect><rect width="7" height="7" x="83" y="69.5" fill-opacity="0.03460725871850412" fill="#fb7185" stroke="none"></rect><rect width="7" height="7" x="92" y="69.5" fill-opacity="0.0382746381251046" fill="#fb7185" stroke="none"></rect><rect width="7" height="7" x="101" y="69.5" fill-opacity="0.034548939779860906" fill="#fb7185" stroke="none"></rect><rect width="7" height="7" x="110" y="69.5" fill-opacity="0.02160692433940554" fill="#fb7185" stroke="none"></rect><rect width="7" height="7" x="119" y="69.5" fill-opacity="0.05865712927414202" fill="#fb7185" stroke="none"></rect><rect width="7" height="7" x="128" y="69.5" fill-opacity="0.023112876148389676" fill="#fb7185" stroke="none"></rect><rect width="7" height="7" x="137" y="69.5" fill-opacity="0.04796555396563979" fill="#fb7185" stroke="none"></rect><rect width="7" height="7" x="146" y="69.5" fill-opacity="0.043563710420138624" fill="#fb7185" stroke="none"></rect><rect width="7" height="7" x="155" y="69.5" fill-opacity="0.05626785269367609" fill="#fb7185" stroke="none"></rect><rect width="7" height="7" x="38" y="78.5" fill-opacity="0.0651064563989383" fill="#fb7185" stroke="none"></rect><rect width="7" height="7" x="47" y="78.5" fill-opacity="0.03778645623220783" fill="#fb7185" stroke="none"></rect><rect width="7" height="7" x="56" y="78.5" fill-opacity="0.04176895154266177" fill="#fb7185" stroke="none"></rect><rect width="7" height="7" x="65" y="78.5" fill-opacity="0.08076740768068771" fill="#fb7185" stroke="none"></rect><rect width="7" height="7" x="74" y="78.5" fill-opacity="0.03458370049600763" fill="#fb7185" stroke="none"></rect><rect width="7" height="7" x="83" y="78.5" fill-opacity="0.06587857294521404" fill="#fb7185" stroke="none"></rect><rect width="7" height="7" x="92" y="78.5" fill-opacity="0.09554952319810571" fill="#fb7185" stroke="none"></rect><rect width="7" height="7" x="101" y="78.5" fill-opacity="0.048607669988281296" fill="#fb7185" stroke="none"></rect><rect width="7" height="7" x="110" y="78.5" fill-opacity="0.07656806155206894" fill="#fb7185" stroke="none"></rect><rect width="7" height="7" x="119" y="78.5" fill-opacity="0.05759769203303457" fill="#fb7185" stroke="none"></rect><rect width="7" height="7" x="128" y="78.5" fill-opacity="0.07898382150815281" fill="#fb7185" stroke="none"></rect><rect width="7" height="7" x="137" y="78.5" fill-opacity="0.09188060118853987" fill="#fb7185" stroke="none"></rect><rect width="7" height="7" x="146" y="78.5" fill-opacity="0.06277742134184741" fill="#fb7185" stroke="none"></rect><rect width="7" height="7" x="155" y="78.5" fill-opacity="0.07307426676454241" fill="#fb7185" stroke="none"></rect><rect width="7" height="7" x="38" y="87.5" fill-opacity="0.06050199727105426" fill="#fb7185" stroke="none"></rect><rect width="7" height="7" x="47" y="87.5" fill-opacity="0.13469889438622754" fill="#fb7185" stroke="none"></rect><rect width="7" height="7" x="56" y="87.5" fill-opacity="0.10081521483979929" fill="#fb7185" stroke="none"></rect><rect width="7" height="7" x="65" y="87.5" fill-opacity="0.13430686242949563" fill="#fb7185" stroke="none"></rect><rect width="7" height="7" x="74" y="87.5" fill-opacity="0.082788471082831" fill="#fb7185" stroke="none"></rect><rect width="7" height="7" x="83" y="87.5" fill-opacity="0.10832416192063819" fill="#fb7185" stroke="none"></rect><rect width="7" height="7" x="92" y="87.5" fill-opacity="0.1472532744990969" fill="#fb7185" stroke="none"></rect><rect width="7" height="7" x="101" y="87.5" fill-opacity="0.07810043835059974" fill="#fb7185" stroke="none"></rect><rect width="7" height="7" x="110" y="87.5" fill-opacity="0.063893579493221" fill="#fb7185" stroke="none"></rect><rect width="7" height="7" x="119" y="87.5" fill-opacity="0.1044557486826237" fill="#fb7185" stroke="none"></rect><rect width="7" height="7" x="128" y="87.5" fill-opacity="0.11053366449556704" fill="#fb7185" stroke="none"></rect><rect width="7" height="7" x="137" y="87.5" fill-opacity="0.13161541576883662" fill="#fb7185" stroke="none"></rect><rect width="7" height="7" x="146" y="87.5" fill-opacity="0.08863203132864748" fill="#fb7185" stroke="none"></rect><rect width="7" height="7" x="155" y="87.5" fill-opacity="0.08086417036505997" fill="#fb7185" stroke="none"></rect><rect width="7" height="7" x="38" y="96.5" fill-opacity="0.14698669225147226" fill="#fb7185" stroke="none"></rect><rect width="7" height="7" x="47" y="96.5" fill-opacity="0.13784341738468547" fill="#fb7185" stroke="none"></rect><rect width="7" height="7" x="56" y="96.5" fill-opacity="0.11550914454867518" fill="#fb7185" stroke="none"></rect><rect width="7" height="7" x="65" y="96.5" fill-opacity="0.12360400894973837" fill="#fb7185" stroke="none"></rect><rect width="7" height="7" x="74" y="96.5" fill-opacity="0.10633027856501531" fill="#fb7185" stroke="none"></rect><rect width="7" height="7" x="83" y="96.5" fill-opacity="0.13353123892419905" fill="#fb7185" stroke="none"></rect><rect width="7" height="7" x="92" y="96.5" fill-opacity="0.10438339925249226" fill="#fb7185" stroke="none"></rect><rect width="7" height="7" x="101" y="96.5" fill-opacity="0.17945141965320507" fill="#fb7185" stroke="none"></rect><rect width="7" height="7" x="110" y="96.5" fill-opacity="0.17928359991859513" fill="#fb7185" stroke="none"></rect><rect width="7" height="7" x="119" y="96.5" fill-opacity="0.12894381571473912" fill="#fb7185" stroke="none"></rect><rect width="7" height="7" x="128" y="96.5" fill-opacity="0.18352172915423254" fill="#fb7185" stroke="none"></rect><rect width="7" height="7" x="137" y="96.5" fill-opacity="0.0796515343244558" fill="#fb7185" stroke="none"></rect><rect width="7" height="7" x="146" y="96.5" fill-opacity="0.08913463179164959" fill="#fb7185" stroke="none"></rect><rect width="7" height="7" x="155" y="96.5" fill-opacity="0.16273831181651688" fill="#fb7185" stroke="none"></rect><rect width="7" height="7" x="38" y="105.5" fill-opacity="0.10949573949891518" fill="#fb7185" stroke="none"></rect><rect width="7" height="7" x="47" y="105.5" fill-opacity="0.11397287577079328" fill="#fb7185" stroke="none"></rect><rect width="7" height="7" x="56" y="105.5" fill-opacity="0.17305172612098574" fill="#fb7185" stroke="none"></rect><rect width="7" height="7" x="65" y="105.5" fill-opacity="0.11916502087274983" fill="#fb7185" stroke="none"></rect><rect width="7" height="7" x="74" y="105.5" fill-opacity="0.09679634581198897" fill="#fb7185" stroke="none"></rect><rect width="7" height="7" x="83" y="105.5" fill-opacity="0.12888195035236766" fill="#fb7185" stroke="none"></rect><rect width="7" height="7" x="92" y="105.5" fill-opacity="0.15085481665143052" fill="#fb7185" stroke="none"></rect><rect width="7" height="7" x="101" y="105.5" fill-opacity="0.10636114099922975" fill="#fb7185" stroke="none"></rect><rect width="7" height="7" x="110" y="105.5" fill-opacity="0.17072006843498408" fill="#fb7185" stroke="none"></rect><rect width="7" height="7" x="119" y="105.5" fill-opacity="0.16369138531088243" fill="#fb7185" stroke="none"></rect><rect width="7" height="7" x="128" y="105.5" fill-opacity="0.2106854522568086" fill="#fb7185" stroke="none"></rect><rect width="7" height="7" x="137" y="105.5" fill-opacity="0.23686103091787178" fill="#fb7185" stroke="none"></rect><rect width="7" height="7" x="146" y="105.5" fill-opacity="0.1853122611755041" fill="#fb7185" stroke="none"></rect><rect width="7" height="7" x="155" y="105.5" fill-opacity="0.14361575723634404" fill="#fb7185" stroke="none"></rect><rect width="7" height="7" x="38" y="114.5" fill-opacity="0.17820806516198254" fill="#fb7185" stroke="none"></rect><rect width="7" height="7" x="47" y="114.5" fill-opacity="0.16676508034794277" fill="#fb7185" stroke="none"></rect><rect width="7" height="7" x="56" y="114.5" fill-opacity="0.2776036548856978" fill="#fb7185" stroke="none"></rect><rect width="7" height="7" x="65" y="114.5" fill-opacity="0.22350707054362887" fill="#fb7185" stroke="none"></rect><rect width="7" height="7" x="74" y="114.5" fill-opacity="0.17312044555028744" fill="#fb7185" stroke="none"></rect><rect width="7" height="7" x="83" y="114.5" fill-opacity="0.30842994763977194" fill="#fb7185" stroke="none"></rect><rect width="7" height="7" x="92" y="114.5" fill-opacity="0.30636668255984595" fill="#fb7185" stroke="none"></rect><rect width="7" height="7" x="101" y="114.5" fill-opacity="0.12126696662215129" fill="#fb7185" stroke="none"></rect><rect width="7" height="7" x="110" y="114.5" fill-opacity="0.22961223507840622" fill="#fb7185" stroke="none"></rect><rect width="7" height="7" x="119" y="114.5" fill-opacity="0.3145538805868542" fill="#fb7185" stroke="none"></rect><rect width="7" height="7" x="128" y="114.5" fill-opacity="0.22769186746019507" fill="#fb7185" stroke="none"></rect><rect width="7" height="7" x="137" y="114.5" fill-opacity="0.15831557891589165" fill="#fb7185" stroke="none"></rect><rect width="7" height="7" x="146" y="114.5" fill-opacity="0.16387899607214707" fill="#fb7185" stroke="none"></rect><rect width="7" height="7" x="155" y="114.5" fill-opacity="0.1781314276215392" fill="#fb7185" stroke="none"></rect><rect width="7" height="7" x="38" y="123.5" fill-opacity="0.34874167892014374" fill="#fb7185" stroke="none"></rect><rect width="7" height="7" x="47" y="123.5" fill-opacity="0.3705559589502172" fill="#fb7185" stroke="none"></rect><rect width="7" height="7" x="56" y="123.5" fill-opacity="0.4078704263113468" fill="#fb7185" stroke="none"></rect><rect width="7" height="7" x="65" y="123.5" fill-opacity="0.25710095586844706" fill="#fb7185" stroke="none"></rect><rect width="7" height="7" x="74" y="123.5" fill-opacity="0.16000766910767777" fill="#fb7185" stroke="none"></rect><rect width="7" height="7" x="83" y="123.5" fill-opacity="0.31265173738845037" fill="#fb7185" stroke="none"></rect><rect width="7" height="7" x="92" y="123.5" fill-opacity="0.3675404083516913" fill="#fb7185" stroke="none"></rect><rect width="7" height="7" x="101" y="123.5" fill-opacity="0.1984754628075455" fill="#fb7185" stroke="none"></rect><rect width="7" height="7" x="110" y="123.5" fill-opacity="0.2946312267908815" fill="#fb7185" stroke="none"></rect><rect width="7" height="7" x="119" y="123.5" fill-opacity="0.32966393928942234" fill="#fb7185" stroke="none"></rect><rect width="7" height="7" x="128" y="123.5" fill-opacity="0.21597447904695632" fill="#fb7185" stroke="none"></rect><rect width="7" height="7" x="137" y="123.5" fill-opacity="0.40497780008783335" fill="#fb7185" stroke="none"></rect><rect width="7" height="7" x="146" y="123.5" fill-opacity="0.1532173436253063" fill="#fb7185" stroke="none"></rect><rect width="7" height="7" x="155" y="123.5" fill-opacity="0.2324232994237295" fill="#fb7185" stroke="none"></rect><rect width="7" height="7" x="38" y="132.5" fill-opacity="0.36657534532775937" fill="#fb7185" stroke="none"></rect><rect width="7" height="7" x="47" y="132.5" fill-opacity="0.3886152200384878" fill="#fb7185" stroke="none"></rect><rect width="7" height="7" x="56" y="132.5" fill-opacity="0.5442453309137215" fill="#fb7185" stroke="none"></rect><rect width="7" height="7" x="65" y="132.5" fill-opacity="0.21960824345400068" fill="#fb7185" stroke="none"></rect><rect width="7" height="7" x="74" y="132.5" fill-opacity="0.41625633324076555" fill="#fb7185" stroke="none"></rect><rect width="7" height="7" x="83" y="132.5" fill-opacity="0.47673367361991076" fill="#fb7185" stroke="none"></rect><rect width="7" height="7" x="92" y="132.5" fill-opacity="0.40677381473069363" fill="#fb7185" stroke="none"></rect><rect width="7" height="7" x="101" y="132.5" fill-opacity="0.5088917930633629" fill="#fb7185" stroke="none"></rect><rect width="7" height="7" x="110" y="132.5" fill-opacity="0.3144337796885151" fill="#fb7185" stroke="none"></rect><rect width="7" height="7" x="119" y="132.5" fill-opacity="0.20593904105429284" fill="#fb7185" stroke="none"></rect><rect width="7" height="7" x="128" y="132.5" fill-opacity="0.4022843346547469" fill="#fb7185" stroke="none"></rect><rect width="7" height="7" x="137" y="132.5" fill-opacity="0.3396479445942499" fill="#fb7185" stroke="none"></rect><rect width="7" height="7" x="146" y="132.5" fill-opacity="0.3406018549254126" fill="#fb7185" stroke="none"></rect><rect width="7" height="7" x="155" y="132.5" fill-opacity="0.4257075737779877" fill="#fb7185" stroke="none"></rect><rect width="7" height="7" x="38" y="141.5" fill-opacity="0.26362225559018343" fill="#fb7185" stroke="none"></rect><rect width="7" height="7" x="47" y="141.5" fill-opacity="0.3681839622546484" fill="#fb7185" stroke="none"></rect><rect width="7" height="7" x="56" y="141.5" fill-opacity="0.5319911490431879" fill="#fb7185" stroke="none"></rect><rect width="7" height="7" x="65" y="141.5" fill-opacity="0.3330576406961696" fill="#fb7185" stroke="none"></rect><rect width="7" height="7" x="74" y="141.5" fill-opacity="0.5389664956135783" fill="#fb7185" stroke="none"></rect><rect width="7" height="7" x="83" y="141.5" fill-opacity="0.3805347324226782" fill="#fb7185" stroke="none"></rect><rect width="7" height="7" x="92" y="141.5" fill-opacity="0.34623333102716447" fill="#fb7185" stroke="none"></rect><rect width="7" height="7" x="101" y="141.5" fill-opacity="0.5957929846838601" fill="#fb7185" stroke="none"></rect><rect width="7" height="7" x="110" y="141.5" fill-opacity="0.2842870218372957" fill="#fb7185" stroke="none"></rect><rect width="7" height="7" x="119" y="141.5" fill-opacity="0.4754229332207571" fill="#fb7185" stroke="none"></rect><rect width="7" height="7" x="128" y="141.5" fill-opacity="0.5858160052446002" fill="#fb7185" stroke="none"></rect><rect width="7" height="7" x="137" y="141.5" fill-opacity="0.3743695419068747" fill="#fb7185" stroke="none"></rect><rect width="7" height="7" x="146" y="141.5" fill-opacity="0.38315532899248805" fill="#fb7185" stroke="none"></rect><rect width="7" height="7" x="155" y="141.5" fill-opacity="0.3599719545515722" fill="#fb7185" stroke="none"></rect><rect width="7" height="7" x="38" y="150.5" fill-opacity="0.2550243550682382" fill="#fb7185" stroke="none"></rect><rect width="7" height="7" x="47" y="150.5" fill-opacity="0.6989874792961044" fill="#fb7185" stroke="none"></rect><rect width="7" height="7" x="56" y="150.5" fill-opacity="0.5991260190897801" fill="#fb7185" stroke="none"></rect><rect width="7" height="7" x="65" y="150.5" fill-opacity="0.44756621827790755" fill="#fb7185" stroke="none"></rect><rect width="7" height="7" x="74" y="150.5" fill-opacity="0.7399229716733875" fill="#fb7185" stroke="none"></rect><rect width="7" height="7" x="83" y="150.5" fill-opacity="0.5758662138765964" fill="#fb7185" stroke="none"></rect><rect width="7" height="7" x="92" y="150.5" fill-opacity="0.3239489074201733" fill="#fb7185" stroke="none"></rect><rect width="7" height="7" x="101" y="150.5" fill-opacity="0.30380985274206307" fill="#fb7185" stroke="none"></rect><rect width="7" height="7" x="110" y="150.5" fill-opacity="0.3769920781134577" fill="#fb7185" stroke="none"></rect><rect width="7" height="7" x="119" y="150.5" fill-opacity="0.46420731719914293" fill="#fb7185" stroke="none"></rect><rect width="7" height="7" x="128" y="150.5" fill-opacity="0.7602222515273603" fill="#fb7185" stroke="none"></rect><rect width="7" height="7" x="137" y="150.5" fill-opacity="0.6873825613604244" fill="#fb7185" stroke="none"></rect><rect width="7" height="7" x="146" y="150.5" fill-opacity="0.34713204770989586" fill="#fb7185" stroke="none"></rect><rect width="7" height="7" x="155" y="150.5" fill-opacity="0.802252109236529" fill="#fb7185" stroke="none"></rect><rect width="7" height="7" x="38" y="159.5" fill-opacity="0.6124114614445715" fill="#fb7185" stroke="none"></rect><rect width="7" height="7" x="47" y="159.5" fill-opacity="0.8693966998369431" fill="#fb7185" stroke="none"></rect><rect width="7" height="7" x="56" y="159.5" fill-opacity="0.5282310163602233" fill="#fb7185" stroke="none"></rect><rect width="7" height="7" x="65" y="159.5" fill-opacity="0.5161380848614499" fill="#fb7185" stroke="none"></rect><rect width="7" height="7" x="74" y="159.5" fill-opacity="0.5442009098711423" fill="#fb7185" stroke="none"></rect><rect width="7" height="7" x="83" y="159.5" fill-opacity="0.7225713936379179" fill="#fb7185" stroke="none"></rect><rect width="7" height="7" x="92" y="159.5" fill-opacity="0.5646331760450266" fill="#fb7185" stroke="none"></rect><rect width="7" height="7" x="101" y="159.5" fill-opacity="0.40649957513669505" fill="#fb7185" stroke="none"></rect><rect width="7" height="7" x="110" y="159.5" fill-opacity="0.9399661358678713" fill="#fb7185" stroke="none"></rect><rect width="7" height="7" x="119" y="159.5" fill-opacity="0.5429561354103498" fill="#fb7185" stroke="none"></rect><rect width="7" height="7" x="128" y="159.5" fill-opacity="0.7608666548272593" fill="#fb7185" stroke="none"></rect><rect width="7" height="7" x="137" y="159.5" fill-opacity="0.32900839303620155" fill="#fb7185" stroke="none"></rect><rect width="7" height="7" x="146" y="159.5" fill-opacity="0.9061570826219394" fill="#fb7185" stroke="none"></rect><rect width="7" height="7" x="155" y="159.5" fill-opacity="0.8079198075691236" fill="#fb7185" stroke="none"></rect></g><line x1="78.33333333333334" y1="30" x2="78.33333333333334" y2="170" stroke-linecap="round" stroke-width="5" stroke="#dc2626"></line><line x1="121.66666666666667" y1="30" x2="121.66666666666667" y2="170" stroke-linecap="round" stroke-width="5" stroke="#dc2626"></line><line x1="35" y1="65" x2="165" y2="65" stroke-linecap="round" stroke-width="5" stroke="#dc2626"></line><line x1="35" y1="100" x2="165" y2="100" stroke-linecap="round" stroke-width="5" stroke="#dc2626"></line><line x1="35" y1="135" x2="165" y2="135" stroke-linecap="round" stroke-width="5" stroke="#dc2626"></line><rect width="130" height="140" x="35" y="30" rx="5" ry="5" fill="none" stroke-linejoin="round" stroke-width="12" stroke="#dc2626"></rect></g><g><line x1="24" y1="52" x2="74" y2="52" stroke-linecap="round" stroke-width="8" stroke="#dc2626"></line></g></svg>